<svg style="background:#EAF0FA" version="1.2" xmlns="http://www.w3.org/2000/svg" viewBox="0 0 5079 8268" width="50" height="82">
	<style>
		.s0 { fill: #ffffff } 
		.s1 { fill: #044e99 } 
	</style>
	<g id="Background">
		
		<path id="Path 1" fill-rule="evenodd" class="s1" d="m2777.5 1279.5c25.73 0.19 40 0.74 50 1.93 7.7 0.91 20.53 2.75 28.5 4.09 7.97 1.33 20.57 3.8 28 5.49 7.43 1.68 19.13 4.68 26 6.65 6.88 1.98 18.35 5.6 25.5 8.05 7.15 2.45 18.63 6.72 25.5 9.49 6.88 2.77 20.6 8.99 30.5 13.82 9.9 4.83 23.63 12.03 30.5 15.99 6.88 3.97 18.35 11.08 25.5 15.8 7.15 4.73 19.07 13.17 26.5 18.76 7.43 5.59 19.35 15.26 26.5 21.47 7.15 6.22 18.64 16.97 25.54 23.88 6.9 6.92 17.64 18.43 23.88 25.58 6.24 7.15 15.92 19.08 21.51 26.5 5.59 7.42 14.03 19.35 18.76 26.5 4.72 7.15 11.83 18.63 15.8 25.5 3.96 6.88 11.16 20.6 15.99 30.5 4.83 9.9 11.05 23.63 13.82 30.5 2.77 6.88 7.04 18.35 9.49 25.5 2.45 7.15 6.07 18.63 8.05 25.5 1.97 6.88 4.92 18.35 6.54 25.5 1.62 7.15 4.08 19.75 5.47 28 1.39 8.25 3.34 21.75 4.33 30 1.44 12.04 1.79 22.7 1.79 54 0 31.3-0.35 41.96-1.79 54-0.99 8.25-2.94 21.75-4.33 30-1.39 8.25-3.85 20.85-5.47 28-1.62 7.15-4.57 18.63-6.54 25.5-1.98 6.88-5.6 18.35-8.05 25.5-2.45 7.15-6.72 18.63-9.5 25.5-2.78 6.88-8.75 20.15-13.26 29.5-4.51 9.35-11.7 23.08-15.98 30.5-4.28 7.42-11.64 19.35-16.36 26.5-4.73 7.15-13.17 19.07-18.76 26.5-5.59 7.43-15.26 19.35-21.48 26.5-6.23 7.15-16.97 18.65-23.88 25.57-6.92 6.91-18.42 17.65-25.57 23.88-7.15 6.22-19.07 15.89-26.5 21.48-7.43 5.59-19.35 14.03-26.5 18.76-7.15 4.72-19.07 12.08-26.5 16.36-7.43 4.28-21.15 11.47-30.5 15.98-9.35 4.51-22.63 10.48-29.5 13.26-6.88 2.78-18.35 7.05-25.5 9.5-7.15 2.45-18.63 6.07-25.5 8.05-6.88 1.97-18.57 4.97-26 6.65-7.43 1.69-20.03 4.16-28 5.49-7.97 1.34-21.25 3.23-29.5 4.21-11.96 1.42-22.9 1.78-54 1.78-31.1 0-42.04-0.36-54-1.78-8.25-0.98-21.53-2.87-29.5-4.21-7.97-1.33-20.57-3.8-28-5.49-7.43-1.68-19.13-4.68-26-6.65-6.88-1.98-18.35-5.6-25.5-8.05-7.15-2.45-18.63-6.72-25.5-9.5-6.88-2.78-20.15-8.75-29.5-13.26-9.35-4.51-23.07-11.7-30.5-15.98-7.43-4.28-19.35-11.64-26.5-16.36-7.15-4.73-19.07-13.17-26.5-18.76-7.43-5.59-19.35-15.26-26.5-21.48-7.15-6.23-18.65-16.97-25.57-23.88-6.91-6.92-17.65-18.42-23.88-25.57-6.22-7.15-15.89-19.07-21.48-26.5-5.59-7.43-14.03-19.35-18.76-26.5-4.72-7.15-11.83-18.63-15.8-25.5-3.96-6.88-11.16-20.6-15.99-30.5-4.83-9.9-11.05-23.63-13.82-30.5-2.77-6.88-7.04-18.35-9.49-25.5-2.45-7.15-6.07-18.63-8.05-25.5-1.97-6.88-4.92-18.35-6.54-25.5-1.62-7.15-4.08-19.75-5.47-28-1.39-8.25-3.34-21.75-4.33-30-1.44-12.04-1.79-22.7-1.79-54 0-31.3 0.35-41.96 1.79-54 0.99-8.25 2.94-21.75 4.33-30 1.39-8.25 3.85-20.85 5.47-28 1.62-7.15 4.57-18.63 6.54-25.5 1.98-6.88 5.6-18.35 8.05-25.5 2.45-7.15 6.72-18.63 9.49-25.5 2.77-6.88 8.99-20.6 13.82-30.5 4.83-9.9 12.03-23.63 15.99-30.5 3.97-6.88 11.08-18.35 15.8-25.5 4.73-7.15 13.17-19.08 18.76-26.5 5.59-7.42 15.27-19.35 21.51-26.5 6.24-7.15 16.98-18.66 23.88-25.58 6.9-6.91 18.39-17.66 25.54-23.88 7.15-6.21 19.07-15.88 26.5-21.47 7.43-5.59 19.35-14.03 26.5-18.76 7.15-4.72 18.63-11.83 25.5-15.8 6.87-3.96 20.6-11.16 30.5-15.99 9.9-4.83 23.63-11.05 30.5-13.82 6.87-2.77 18.35-7.04 25.5-9.49 7.15-2.45 18.63-6.07 25.5-8.05 6.87-1.97 18.57-4.97 26-6.65 7.43-1.69 20.03-4.16 28-5.5 7.97-1.34 21.25-3.12 29.5-3.97 8.25-0.84 16.8-1.71 19-1.92 2.2-0.22 20.2-0.27 40-0.12zm-1425.75 1050.63c5.64-0.07 14.86 0.37 20.5 0.98 5.64 0.6 15.42 2.4 21.75 3.98 8.14 2.04 15.01 4.63 23.5 8.89 7.77 3.88 15.16 8.56 20.97 13.26 4.93 3.99 11.6 10.41 14.82 14.26 3.22 3.85 7.36 9.25 9.19 12 1.83 2.75 5.18 8.6 7.43 13 2.26 4.4 5.23 11.37 6.6 15.5 1.37 4.12 2.5 9.3 2.52 11.5 0.02 2.88-0.82 5.19-3 8.25-1.67 2.34-3.14 4.25-3.28 4.24-0.14 0-9.92 2.24-21.75 4.99-11.83 2.74-22.85 4.99-24.5 4.99-1.65 0-3.53-0.33-4.17-0.74-0.65-0.4-2.39-4.11-3.87-8.23-1.47-4.13-4.74-11.55-7.26-16.5-3.47-6.81-6.42-10.85-12.14-16.6-5.67-5.7-9.44-8.5-15.06-11.19-4.12-1.97-11.33-4.34-16-5.28-6.44-1.29-11.28-1.57-20-1.13-6.33 0.31-14.88 1.44-19 2.51-4.12 1.07-10.65 3.53-14.5 5.46-3.85 1.93-9.89 5.69-13.43 8.37-3.54 2.67-8.61 7.56-11.27 10.86-2.66 3.3-6.6 9.6-8.77 14-2.17 4.4-5.04 11.82-6.38 16.5-1.33 4.68-3.19 13-4.12 18.5-1.1 6.5-1.68 15.42-1.66 25.5 0.02 8.64 0.72 20.15 1.58 26 0.86 5.77 2.41 13.43 3.46 17 1.05 3.57 2.65 8.52 3.56 11 0.91 2.47 3.41 7.87 5.56 12 2.15 4.12 6.29 10.15 9.19 13.38 2.9 3.24 8.43 7.98 12.28 10.54 3.85 2.57 10.38 6.07 14.5 7.79 4.13 1.72 10.99 3.83 15.25 4.71 4.26 0.87 11.35 1.58 15.75 1.58 4.4 0 11.49-0.7 15.75-1.56 4.48-0.9 11.76-3.49 17.25-6.14 7.87-3.79 10.89-5.96 17.6-12.69 6.84-6.84 8.91-9.75 13.24-18.61 2.83-5.78 6.22-14.32 7.53-19 2.25-7.99 2.65-8.67 6.76-11.26 2.4-1.52 5.61-2.76 7.12-2.75 1.51 0 12.04 2.37 44.02 10.51l2.34 4c1.45 2.47 2.35 5.63 2.37 8.25 0.01 2.34-1.49 8.86-3.34 14.5-1.86 5.64-5.2 14.07-7.43 18.75-2.23 4.68-5.95 11.43-8.26 15-2.32 3.57-7.06 9.87-10.55 14-3.49 4.12-8.49 9.35-11.12 11.6-2.63 2.26-7.7 6.16-11.28 8.67-3.58 2.52-11.22 6.85-17 9.64-6.4 3.08-14.99 6.19-22 7.97-6.33 1.6-16.11 3.41-21.75 4.01-5.64 0.61-14.19 1.11-19 1.11-4.81 0-13.7-0.47-19.75-1.04-6.05-0.57-16.17-2.18-22.5-3.59-6.33-1.41-15.55-4.13-20.5-6.04-4.95-1.92-11.92-5.2-15.5-7.29-3.58-2.09-9.88-6.47-14-9.75-4.13-3.27-10.2-8.84-13.5-12.37-3.3-3.53-8.86-10.7-12.36-15.92-3.49-5.23-8.16-13.32-10.38-18-2.21-4.68-5.74-13.68-7.84-20-2.11-6.32-4.97-17.13-6.36-24-1.39-6.88-3.07-19.48-3.72-28-0.88-11.65-0.9-19.1-0.06-30 0.62-7.98 2.08-19.45 3.25-25.5 1.17-6.05 3.65-15.73 5.51-21.5 1.86-5.78 5.68-15 8.48-20.5 2.81-5.5 7.66-13.55 10.79-17.89 3.13-4.34 8.84-11.12 12.69-15.07 3.85-3.94 10.6-9.85 15-13.12 4.4-3.27 12.5-8.27 18-11.09 5.5-2.83 14.72-6.71 20.5-8.63 5.78-1.92 14.1-4.22 18.5-5.11 4.4-0.88 11.37-1.99 15.5-2.47 4.12-0.47 12.11-0.92 17.75-0.99zm1010.25 0.36c11.46 0.27 19.86 1.04 27.5 2.54 6.05 1.18 14.6 3.27 19 4.65 4.4 1.38 12.95 4.89 19 7.8 6.05 2.92 14.82 8.04 19.5 11.38 4.68 3.33 12.32 9.86 17 14.49 4.68 4.63 11.06 11.96 14.2 16.28 3.13 4.33 8.1 12.59 11.04 18.37 2.95 5.77 6.99 15.45 8.98 21.5 1.99 6.05 4.54 15.5 5.67 21 1.12 5.5 2.59 16.75 3.26 25 0.95 11.73 0.95 18.48 0.01 31-0.66 8.8-2.27 20.95-3.57 27-1.29 6.05-3.76 15.16-5.47 20.25-1.72 5.09-5.32 13.64-8.01 19-2.68 5.36-7.81 13.8-11.4 18.75-3.58 4.95-6.22 9.31-5.86 9.69 0.36 0.37 6.27 3.58 13.15 7.13 6.87 3.54 14.7 7.29 17.38 8.31 3.68 1.41 5.32 2.74 6.65 5.37 0.98 1.93 2.09 5.07 2.48 7 0.6 2.96-0.33 5.98-6 19.5-3.69 8.8-7.45 16.8-8.36 17.78-1.03 1.12-3.05 1.77-5.4 1.75-2.06-0.02-7.91-1.64-13-3.6-5.09-1.97-14.2-6.12-20.25-9.22-6.05-3.11-15.95-8.87-33-19.96l-8.5 3.4c-4.68 1.87-13.9 4.73-20.5 6.35-6.6 1.63-16.72 3.42-22.5 3.99-5.78 0.56-14.1 1.02-18.5 1.01-4.4-0.01-12.05-0.47-17-1.02-4.95-0.55-12.6-1.73-17-2.62-4.4-0.89-12.05-2.96-17-4.61-4.95-1.65-13.05-5.03-18-7.51-4.95-2.49-11.93-6.44-15.5-8.79-3.57-2.34-10.07-7.34-14.43-11.11-4.36-3.76-11.04-10.66-14.84-15.34-3.8-4.68-9.43-12.78-12.51-18-3.07-5.23-7.29-13.55-9.36-18.5-2.07-4.95-5.13-14.18-6.8-20.5-1.67-6.32-3.76-16.23-4.63-22-1-6.66-1.58-17.09-1.57-28.5 0-11.02 0.62-22.26 1.58-29 0.87-6.05 2.9-15.95 4.51-22 1.61-6.05 4.76-15.5 7-21 2.24-5.5 6.16-13.6 8.71-18 2.55-4.4 6.99-11.15 9.88-15 2.89-3.85 9.24-10.84 14.11-15.53 4.87-4.69 12.67-11.08 17.35-14.19 4.68-3.11 12.32-7.46 17-9.66 4.68-2.2 12.55-5.33 17.5-6.95 4.95-1.62 12.6-3.67 17-4.56 4.4-0.9 11.37-2.05 15.5-2.56 4.12-0.51 14.93-0.76 24-0.56zm-809.9 4.36l67.7 0.44c57.41 0.37 68.99 0.68 76.2 2.08 4.67 0.9 12.33 2.8 17 4.23 4.67 1.42 11.42 4.11 15 5.97 3.58 1.86 9.18 5.53 12.45 8.16 3.27 2.62 8.58 7.92 11.79 11.77 3.22 3.85 7.61 10.6 9.76 15 2.15 4.4 4.93 11.6 6.17 16 1.83 6.45 2.27 10.52 2.27 21 0 10.55-0.44 14.51-2.29 21-1.26 4.4-4.17 11.57-6.47 15.94-2.37 4.5-6.86 10.77-16.54 21.06l6.18 4.13c3.4 2.27 8.89 7 12.21 10.5 3.31 3.5 7.9 9.52 10.19 13.37 2.29 3.85 5.29 10.37 6.66 14.5 1.37 4.12 3.03 11.55 3.69 16.5 0.7 5.29 0.93 12.92 0.56 18.5-0.35 5.22-1.56 13.32-2.69 18-1.13 4.68-3.74 12.1-5.8 16.5-2.07 4.4-5.57 10.7-7.79 14-2.23 3.3-6.25 8.27-8.95 11.05-2.69 2.78-7.82 7.03-11.4 9.45-3.58 2.42-10.1 5.91-14.5 7.76-4.4 1.84-10.7 4.05-14 4.92-3.3 0.86-10.5 2.38-26 5.16l162 0.2-7-7.15v-292.03l8.5-7.86h33.5c30.74 0 33.64 0.15 35.25 1.77 0.96 0.98 17.95 49.13 37.75 107.01 19.8 57.89 36.22 105.24 36.5 105.24 0.28-0.01 17.08-47.37 37.36-105.26 26.66-76.17 37.44-105.76 39-107.05 1.96-1.64 4.73-1.79 62.64-1.71l8.5 7.86v292.28l-8.5 7.86h-43l-8.5-7.86-1-169.6-30.83 87.48c-17.89 50.76-31.53 88.01-32.5 88.75-1.23 0.93-7.78 1.27-25.17 1.29-21.17 0.02-23.71-0.15-25.61-1.77-1.49-1.27-10.92-27.28-62.89-177.55l-1 171.15-7 7.15 9-0.04c5.97-0.02 9.43 0.39 10.27 1.23 0.69 0.7 1.24 2.39 1.21 3.77-0.04 1.86-4.45 6.94-17.27 19.88-9.46 9.56-31.38 29.83-48.71 45.04-17.33 15.22-48.83 42.31-70 60.2-21.17 17.9-57.4 47.5-80.5 65.79-35.06 27.76-47.67 38.49-110.63 96.59l-35.2 50-7.87 19.5c-7.38 18.29-8.15 20.92-16.93 65.5l2.22 37 7.18 20c4.75 13.26 9.54 24.4 21.23 46.09l59 60.56 62.5 45.76c34.37 25.18 99.4 73.37 144.5 107.09 45.1 33.73 126.55 93.34 181 132.48 54.45 39.14 133.43 96.13 175.5 126.64 48.97 35.52 107.45 76.68 162.5 114.38 47.3 32.39 124.03 85.71 170.5 118.48 46.47 32.78 121.51 85.67 166.75 117.56 45.25 31.88 102.42 71.91 127.06 88.96 24.65 17.05 74.93 52.58 111.75 78.96 36.82 26.37 87.64 63.54 112.94 82.59 39.67 29.88 52.19 40.01 91 73.6 37.44 32.41 54.24 47.91 100 92.25 30.25 29.31 60.18 57.6 66.5 62.86 6.32 5.27 18.25 16.38 26.5 24.68 8.25 8.31 23.36 23.65 33.59 34.08 10.22 10.44 22.43 23.48 27.14 28.98 4.71 5.5 13.67 16.83 19.92 25.17 6.24 8.34 15.01 20.94 19.49 28 4.48 7.06 11.86 19.58 16.4 27.83 4.54 8.25 10.36 18.37 12.94 22.5 2.57 4.12 8.44 14.25 13.05 22.5 4.61 8.25 11.61 21.98 15.56 30.5 3.95 8.52 10.13 22.93 13.73 32 3.61 9.07 9.02 23.93 12.03 33 3.01 9.07 7.94 25.5 10.95 36.5 3.01 11 7.35 28.77 9.66 39.5 2.3 10.73 5.71 28.5 7.58 39.5 1.86 11 4.29 27.2 5.39 36 1.1 8.8 2.69 23.65 3.53 33 0.83 9.35 1.98 25.1 2.53 35 0.56 9.9 1.02 31.95 1.02 49 0 17.05-0.46 39.1-1.02 49-0.56 9.9-1.72 25.87-2.58 35.5-0.86 9.62-2.66 25.82-4.01 36-1.34 10.18-3.54 27.5-4.89 38.5-1.35 11-3.37 26.3-4.5 34-1.14 7.7-3.2 20.75-4.59 29-1.39 8.25-4.33 24-6.53 35-2.21 11-6.47 30.12-9.48 42.5-3.01 12.37-7.91 31.05-10.9 41.5-2.98 10.45-8.86 29.12-13.06 41.5-4.19 12.37-10.67 30.15-14.41 39.5-3.73 9.35-9.37 22.85-12.54 30-3.17 7.15-9.47 20.43-14 29.5-4.54 9.07-11.74 22.57-16.01 30-4.26 7.43-10.91 18.45-14.77 24.5-3.86 6.05-9.78 14.82-13.15 19.5-3.38 4.68-8.57 12.55-11.54 17.5-2.97 4.95-8.4 13.5-12.07 19-3.67 5.5-10.18 14.5-14.46 20-4.29 5.5-12.18 14.95-17.54 21-5.37 6.05-10.98 12.12-12.48 13.5-1.5 1.37-8 8.8-14.45 16.5-6.44 7.7-15.27 17.9-19.62 22.67-4.35 4.77-12.86 13.95-18.91 20.4-6.05 6.45-20 20.61-31 31.46-15 14.79-32.52 30.2-120.16 103.47l-118.53 116-113.31 130.22-111.89 168.78-81.89 151-57.43 146-18.6 66.5c-17.32 61.88-19.41 70.29-41.58 175.5l-4.05 3.75c-2.67 2.46-5.01 3.74-6.81 3.73-1.51 0-3.28-0.34-3.92-0.75-0.65-0.4-2.13-2.98-3.3-5.73-1.44-3.39-2.75-10.48-4.06-22-1.06-9.35-3.81-45.35-10.31-143l2.69-58c2.65-57.2 2.78-58.81 9.61-117 6.85-58.34 7.03-59.49 15.92-102.5 7.17-34.68 11.52-52.62 21.44-88.5 10.39-37.58 15.37-53.33 30.15-95.5 17.16-48.94 18.41-52.07 40.74-101.5 12.66-28.05 24.27-53.48 25.79-56.5 1.53-3.02 11.29-20.57 21.71-39 10.42-18.43 30.55-52.4 44.75-75.5 22.46-36.54 31.15-49.47 66.86-99.5 29.34-41.1 63.18-86.44 196.35-260.5l103.45-179 50.59-123 38.14-134 11.45-78 0.03-55.5c0.02-54.17-0.04-55.97-2.58-75-1.42-10.73-4.92-29.63-7.76-42-4.42-19.25-6.98-27.48-17.73-57-12.36-33.96-12.85-35.06-31.3-70.5-18.28-35.12-19.11-36.49-33.8-56-12.72-16.89-20.62-25.85-86.66-95.41l-38.51-31.79c-21.71-17.93-68.8-54.92-177.39-137.8l-99.05-66.85c-56.41-38.07-154.8-103.03-228.55-150.9-71.22-46.23-179.68-115.76-241-154.52-104.12-65.8-120.6-76.62-249-163.53-75.63-51.19-175.97-119.17-223-151.08-74.74-50.71-92.17-63.04-138.5-97.99-29.15-21.98-67.17-50.78-84.5-64-17.33-13.21-47.25-37.31-66.5-53.54-19.25-16.23-47.1-40.78-61.89-54.55-21.6-20.12-33.49-32.32-94.11-99.13l-20.47-31.96c-12.5-19.5-24.89-40.33-31.8-53.45-6.22-11.82-16.43-33.2-22.68-47.5-8.68-19.85-12.36-29.66-15.57-41.5-2.31-8.53-6.35-22.25-8.97-30.5-2.63-8.25-5.99-19.95-7.47-26-1.49-6.05-3.76-17.3-5.05-25-1.29-7.7-2.9-20.53-3.57-28.5-0.77-9.24-0.99-22.85-0.62-37.5 0.33-12.65 1.31-28.18 2.19-34.5 0.87-6.32 2.75-17.35 4.18-24.5 1.43-7.15 4.37-19.07 6.54-26.5 2.16-7.43 5.98-18.68 8.48-25 2.5-6.32 7.61-17.57 11.36-25 3.76-7.43 9.96-18.22 13.79-24 3.82-5.78 10.71-14.97 15.31-20.44 4.59-5.46 11.63-12.89 15.64-16.5 4-3.61 13.04-12.86 20.08-20.56 12.13-13.28 15.48-16.1 64.71-54.65 28.56-22.36 85-66.84 125.42-98.85 40.42-32 75.75-59.27 83.5-62.98l-54.5-0.02-9.08-8.5 0.12-291.25zm1028.85 0.15h44.05l8.5 7.86 0.54 96.82c0.48 86.94 0.72 97.74 2.3 105.82 0.96 4.95 3.27 12.15 5.11 16 2.28 4.74 5.17 8.7 8.95 12.25 3.11 2.91 8.83 6.81 12.85 8.75 4.05 1.96 10.99 4.22 15.75 5.13 6.48 1.24 11.7 1.48 22 1.04 7.42-0.33 16.42-1.31 20-2.19 3.57-0.87 9.2-2.88 12.5-4.46 3.3-1.57 8.02-4.62 10.5-6.78 2.66-2.32 5.81-6.53 7.71-10.33 1.77-3.52 4.11-10.01 5.21-14.41 1.1-4.4 2.47-12.39 3.04-17.75 0.63-5.96 1.05-44.66 1.12-189.25l8.65-8.5 44.77 0.08 8.49 8.42-0.31 99c-0.27 89.42-0.47 100.02-2.08 109.5-0.97 5.78-2.89 14.78-4.25 20-1.36 5.23-4.4 13.55-6.76 18.5-2.36 4.95-6.33 11.7-8.82 15-2.49 3.3-7.39 8.67-10.9 11.93-3.5 3.27-10.2 8.42-14.87 11.46-4.68 3.04-12.1 6.99-16.5 8.79-4.4 1.8-12.95 4.4-19 5.77-6.05 1.37-16.4 3.02-23 3.66-7.1 0.69-18.14 0.91-27 0.55-8.25-0.34-19.05-1.31-24-2.16-4.95-0.86-12.38-2.47-16.5-3.59-4.13-1.12-10.88-3.39-15-5.04-4.13-1.64-10.88-5.09-15-7.65-4.13-2.56-11.13-8.27-15.56-12.69-4.43-4.41-9.82-10.73-11.97-14.03-2.15-3.3-5.37-9.37-7.15-13.5-1.78-4.12-4.38-11.77-5.77-17-1.39-5.22-3.29-14.22-4.23-20-1.49-9.25-1.74-22.25-2.4-208.66zm429.03-0.04c24.09-0.04 26.71 0.12 28.63 1.75 1.31 1.12 24.47 55.51 61.75 145.04 45.04 108.18 59.64 144.23 59.64 147.25 0 2.73-0.9 5.35-2.84 8.25-1.56 2.34-3.58 4.59-4.5 5-0.91 0.41-13.25 0.76-27.41 0.77-19.21 0.01-26.2-0.31-27.52-1.25-1.01-0.72-8.81-19.2-34.34-84.27l-103.89-0.52-15 40.76c-9.27 25.18-15.84 41.62-17.2 43.01-2.17 2.22-2.58 2.25-51.8 2.17l-3.39-3.71c-1.86-2.04-3.77-4.72-4.25-5.96-0.47-1.24-0.87-3.26-0.88-4.5-0.01-1.24 25.4-67.28 56.48-146.75 33.11-84.7 57.22-145.02 58.24-145.75 1.29-0.92 8.71-1.26 28.28-1.29zm203.97 0.04h71.28c40.59-0.01 76.87 0.44 84.27 1.03 7.15 0.58 17.39 1.93 22.75 3.01 5.36 1.08 12.56 2.98 16 4.22 3.44 1.24 8.87 3.83 12.08 5.75 3.2 1.92 8.34 5.74 11.42 8.49 3.07 2.75 7.8 7.92 10.5 11.5 2.7 3.57 6.44 9.65 8.3 13.5 1.87 3.85 4.6 11.5 6.06 17 2.28 8.53 2.68 12.13 2.75 24.5 0.07 11.9-0.32 16.11-2.17 23.5-1.24 4.95-4.04 12.6-6.23 17-2.19 4.4-6.36 10.92-9.27 14.5-2.91 3.57-7.97 8.67-11.24 11.33-3.27 2.65-9.1 6.57-12.95 8.72-3.85 2.14-9.59 4.8-18.5 7.95l7.75 8.3c4.26 4.56 10.98 12.55 14.93 17.75 3.95 5.2 19.14 27.79 33.75 50.2 23.54 36.1 26.57 41.21 26.57 44.75 0 2.2-0.9 5.8-2 8-1.1 2.2-3.01 4.68-4.25 5.51-1.87 1.25-6.92 1.5-30 1.5-27.4-0.01-27.78-0.04-30.13-2.26-1.31-1.24-9.05-12.6-17.19-25.25-8.13-12.65-20.19-31.1-26.78-41-6.59-9.9-15.17-22.26-19.07-27.46-3.89-5.2-9.89-12.29-13.33-15.75-4.33-4.36-8.61-7.44-21.64-13.79l-50.61-0.5-0.08 117.5-8.66 8.5h-44.26l-9.08-8.5 0.12-291.25zm534.01 0.5l7.54 7.54v40.93l-7.53 7.53-87.97 0.5-0.08 242.5-8.66 8.5h-44.26l-9.09-8.5 0.09-242.5h-42.5c-35.78 0-42.98-0.23-45.5-1.5-1.65-0.82-3.92-2.73-5.04-4.25-1.89-2.55-2.03-4.18-2-22.75 0.02-17.34 0.25-20.31 1.75-22.33 0.95-1.29 3.09-3.2 4.76-4.25 2.95-1.87 6.2-1.92 238.49-1.42zm-996.54 688.48c1.69-0.01 35.25 9.28 146.08 41.29l56 21.23c30.8 11.67 80.07 31.13 163 65.25l50 27.5c36.69 20.19 66.5 37.64 174 103.63l29.88 25.81c27.42 23.69 32.49 28.6 61.5 59.63 17.39 18.6 32.24 35.02 33 36.5 0.76 1.48 2.11 3.37 3 4.21 0.89 0.84 2.97 3.32 4.62 5.5 1.65 2.19 3.61 4.65 4.36 5.47 0.76 0.83 2.33 3.2 3.5 5.28 1.18 2.07 2.48 3.76 2.89 3.75 0.41-0.02 0.75 0.42 0.75 0.97 0 0.55 1.09 2.47 2.42 4.25 1.33 1.79 5.11 8.65 8.4 15.25 3.29 6.6 7.19 14.7 8.66 18 1.47 3.3 3.06 6.9 3.52 8 0.47 1.1 2.46 6.84 4.42 12.75 1.97 5.92 3.57 11.54 3.55 12.5-0.01 0.97 0.62 3.33 1.41 5.25 0.78 1.93 2.58 10.48 4 19 1.42 8.53 2.84 17.53 3.15 20 0.32 2.48 0.71 12.6 0.88 22.5 0.17 10.47-0.24 22.4-0.98 28.5-0.7 5.78-1.32 13.88-1.36 18-0.05 4.13-1.19 16.05-4.98 45.5l-9.34 23.5c-8.5 21.41-11.36 27.16-54.88 105.5l-60.71 82-41.33 44.63c-37.45 40.42-44.09 47.1-70.72 71-20.04 17.99-33.87 29.52-43.5 36.26-7.76 5.44-17.26 12.01-21.11 14.6-3.85 2.59-20.05 10.83-36 18.31-28.62 13.41-29.34 13.68-55 20.75-14.3 3.94-36.8 9.57-74 17.87l-36-0.55c-26.02-0.39-43.63-1.22-91-5.4l-29.5-8.1c-25.53-7-33.74-9.79-92.5-33.27l-52.5-29.24c-50.3-28.02-53.63-30.05-79.39-48.55-14.79-10.62-29.02-21.56-31.63-24.31-2.61-2.75-12.06-13.32-20.99-23.5-10.91-12.42-19.77-23.75-26.96-34.5-5.89-8.8-13.02-20.27-15.85-25.5-3.86-7.13-5.15-10.55-5.16-13.75-0.01-2.57 0.97-6.22 2.48-9.25 1.64-3.27 3.45-5.36 5.25-6.05 1.51-0.58 5.22-1.3 8.25-1.61 4.51-0.45 8.01 0.18 19.5 3.49 7.7 2.22 30.2 9.28 50 15.69 29.52 9.57 49.59 15.14 187 50.3l31.5 3.09c17.32 1.7 36.9 3.07 43.5 3.04 6.6-0.03 23.92-0.67 65-2.8l20.5-5.51c17.9-4.83 23.79-6.98 72.5-28.51l15.44-13.31c10.76-9.28 19.39-17.9 28.5-28.45 8.46-9.8 21.53-27.22 37.16-49.5 13.25-18.9 33.55-48.09 45.11-64.87 19.99-29.02 21.87-32.17 38.83-65 9.8-18.97 21.14-41.47 32.54-65.5l0.95-13.5c0.52-7.42 0.95-17.21 0.96-21.75 0-4.53-1.08-15.11-2.42-23.5-1.72-10.79-3.79-19.19-7.08-28.75-3.25-9.43-8.01-19.82-15.8-34.5-10.3-19.38-12.4-22.57-43.59-62l-19.76-16c-10.87-8.8-35.31-29.67-54.3-46.37-23.22-20.43-47.81-40.74-75.04-62-22.28-17.39-60.98-46.96-86-65.7-25.03-18.74-56.3-42.31-69.5-52.37-13.2-10.06-37.28-27.15-53.5-37.99-16.23-10.84-43.23-28.64-60-39.55-19.9-12.94-32.68-21.96-36.77-25.93-3.44-3.35-6.99-7.66-7.89-9.59-0.9-1.92-1.91-5.16-2.24-7.2-0.56-3.42-0.26-4.01 3.82-7.75 3.14-2.87 5.32-4.05 7.5-4.07z"/>
		<path id="Path 2" class="s0" d="m2742 1361.59c-1.93 0.21-8.45 0.88-14.5 1.48-6.05 0.6-17.53 2.2-25.5 3.54-7.97 1.35-21.7 4.22-30.5 6.37-8.8 2.16-24.1 6.7-34 10.09-9.9 3.39-23.18 8.42-29.5 11.17-6.32 2.76-16.45 7.49-22.5 10.51-6.05 3.03-14.6 7.54-19 10.04-4.4 2.49-14.97 9.12-23.5 14.73-8.53 5.6-20 13.7-25.5 17.99-5.5 4.29-14.72 11.94-20.5 17.01-5.78 5.07-17.03 15.92-25 24.12-7.97 8.2-19.38 20.97-25.34 28.38-5.96 7.42-15.9 21.13-22.1 30.48-6.19 9.35-13.29 20.6-15.78 25-2.49 4.4-7.23 13.4-10.54 20-3.31 6.6-8.29 17.4-11.06 24-2.78 6.6-7.57 19.43-10.65 28.5-3.08 9.08-7.37 23.7-9.53 32.5-2.17 8.8-4.81 20.95-5.88 27-1.08 6.05-2.78 17.3-3.78 25-1.47 11.24-1.83 20.89-1.83 49 0 28.11 0.36 37.76 1.83 49 1 7.7 2.7 18.95 3.78 25 1.07 6.05 3.71 18.2 5.88 27 2.16 8.8 6.45 23.43 9.53 32.5 3.08 9.08 7.87 21.9 10.65 28.5 2.77 6.6 7.75 17.4 11.06 24 3.31 6.6 8.05 15.6 10.54 20 2.49 4.4 9.59 15.65 15.78 25 6.2 9.35 16.14 23.06 22.1 30.48 5.96 7.41 17.37 20.18 25.34 28.38 7.97 8.2 19.22 19.05 25 24.12 5.78 5.07 15 12.72 20.5 17.01 5.5 4.29 16.97 12.39 25.5 17.99 8.53 5.61 19.1 12.24 23.5 14.73 4.4 2.5 12.95 7.01 19 10.04 6.05 3.02 16.18 7.75 22.5 10.51 6.32 2.75 19.6 7.78 29.5 11.17 9.9 3.39 25.2 7.92 34 10.06 8.8 2.15 21.18 4.82 27.5 5.94 6.32 1.11 17.35 2.81 24.5 3.76 10.3 1.38 20.47 1.74 49 1.74 28.53 0 38.7-0.36 49-1.74 7.15-0.95 18.18-2.65 24.5-3.76 6.32-1.12 18.7-3.79 27.5-5.94 8.8-2.15 23.43-6.44 32.5-9.52 9.07-3.08 21.9-7.87 28.5-10.65 6.6-2.77 17.4-7.75 24-11.06 6.6-3.31 15.6-8.05 20-10.55 4.4-2.49 14.97-9.12 23.5-14.73 8.53-5.6 20-13.7 25.5-17.99 5.5-4.29 14.72-11.94 20.5-17.01 5.78-5.07 17.03-15.92 25-24.12 7.97-8.2 19.38-20.97 25.34-28.38 5.96-7.42 15.9-21.13 22.1-30.48 6.19-9.35 13.29-20.6 15.78-25 2.49-4.4 7.23-13.4 10.54-20 3.31-6.6 8.29-17.4 11.06-24 2.78-6.6 7.57-19.42 10.65-28.5 3.08-9.07 7.37-23.7 9.53-32.5 2.17-8.8 4.81-20.95 5.88-27 1.08-6.05 2.78-17.3 3.78-25 1.47-11.24 1.83-20.89 1.83-49 0-28.11-0.36-37.76-1.83-49-1-7.7-2.7-18.95-3.78-25-1.07-6.05-3.71-18.2-5.88-27-2.16-8.8-6.45-23.42-9.53-32.5-3.08-9.07-7.87-21.9-10.65-28.5-2.77-6.6-7.75-17.4-11.06-24-3.31-6.6-8.05-15.6-10.54-20-2.49-4.4-9.59-15.65-15.78-25-6.2-9.35-16.14-23.06-22.1-30.48-5.96-7.41-17.37-20.18-25.34-28.38-7.97-8.2-19.22-19.05-25-24.12-5.78-5.07-15-12.72-20.5-17.01-5.5-4.29-16.97-12.39-25.5-17.99-8.53-5.61-19.1-12.24-23.5-14.73-4.4-2.5-13.4-7.24-20-10.55-6.6-3.31-17.4-8.28-24-11.06-6.6-2.77-18.75-7.35-27-10.17-8.25-2.81-20.85-6.65-28-8.53-7.15-1.88-18.85-4.57-26-5.98-7.15-1.42-19.75-3.49-28-4.62-11.94-1.63-21.62-2.11-47.5-2.37-17.88-0.17-34.07-0.14-36 0.08zm-400.5 1026.78c-3.85 0.74-8.8 1.91-11 2.62-2.2 0.71-7.15 2.86-11 4.78-3.85 1.92-9.03 4.88-11.5 6.57-2.47 1.69-6.69 5.12-9.38 7.62-2.68 2.5-6.81 7.24-9.18 10.54-2.36 3.3-6.1 9.82-8.29 14.5-2.2 4.68-4.91 12.1-6.02 16.5-1.11 4.4-2.5 11.82-3.08 16.5-0.58 4.68-1.05 14.57-1.04 22 0 7.43 0.67 18 1.48 23.5 0.81 5.5 2.64 13.6 4.07 18 1.43 4.4 4.18 11.15 6.12 15 1.93 3.85 4.99 9.03 6.8 11.5 1.8 2.48 7.04 8.04 11.65 12.38 6.62 6.22 10.47 8.89 18.37 12.72 5.5 2.66 12.93 5.5 16.5 6.3 3.57 0.8 9.2 1.8 12.5 2.23l6 0.76c-5.08-6.89-6.81-10.24-7.11-11.89-0.38-2.1 1.17-8.13 5.15-20 3.71-11.05 6.45-17.63 7.83-18.79 1.17-0.99 3.03-1.78 4.13-1.77 1.1 0.01 6.05 1.18 11 2.6 4.95 1.42 13.5 4.37 19 6.54 5.5 2.18 13.82 6.2 18.5 8.94 6.89 4.03 8.76 4.73 9.86 3.72 0.75-0.68 3.44-4.61 5.98-8.74 2.54-4.12 5.84-10.65 7.33-14.5 1.49-3.85 3.63-10.82 4.75-15.5 1.12-4.68 2.44-13.9 2.94-20.5 0.51-6.76 0.54-17.24 0.07-24-0.46-6.6-1.51-15.15-2.33-19-0.83-3.85-2.59-10.15-3.91-14-1.32-3.85-3.65-9.47-5.18-12.5-1.53-3.02-4.47-7.97-6.52-11-2.05-3.02-6.38-8.12-9.61-11.32-3.24-3.2-8.35-7.45-11.38-9.45-3.03-1.99-8.65-5.07-12.5-6.84-3.85-1.76-9.7-3.95-13-4.85-3.42-0.94-11.37-1.83-18.5-2.07-7.99-0.27-15.03 0.05-19.5 0.9zm925.56 36.57l-0.06 35.06c90.41-0.62 92.86-0.74 100.5-2.85 4.4-1.22 9.8-3.28 12-4.56 2.2-1.29 5.77-4.32 7.94-6.72 2.17-2.4 5.06-6.84 6.42-9.87 1.81-4.03 2.47-7.23 2.47-12 0-4.83-0.65-7.91-2.52-12-1.39-3.02-4.5-7.43-6.92-9.79-2.41-2.36-6.42-5.25-8.89-6.43-2.47-1.18-6.75-2.82-9.5-3.64-4.06-1.22-14.1-1.57-53.19-1.88l-48.19-0.38zm-1662.06-1.44v31.5c49.99 0 68.33-0.47 73-1.05 4.9-0.61 10.83-2.12 14-3.56 3.03-1.37 7.02-3.94 8.87-5.7 1.86-1.75 4.44-5.44 5.74-8.19 1.84-3.87 2.37-6.7 2.38-12.5 0.01-6.18-0.49-8.56-2.83-13.5-1.57-3.3-4.6-7.6-6.75-9.56-2.15-1.96-6.16-4.31-8.91-5.23-2.75-0.92-9.05-2.12-14-2.68-4.95-0.56-23.06-1.02-40.25-1.02l-31.25-0.01zm1404.08 0.5c-0.72 2.47-7.55 20.92-15.18 41-7.63 20.07-13.77 36.6-13.64 36.73 0.13 0.13 14.02 0.13 30.86 0l30.62-0.23c-23.09-60.45-30.14-78.9-30.57-80-0.65-1.67-1-1.26-2.09 2.5zm-1403.98 124.9l-0.1 37.1c81.5-0.57 83.81-0.69 90-2.76 3.58-1.19 8.53-3.44 11-5 2.48-1.55 5.69-4.38 7.14-6.28 1.45-1.9 3.66-5.49 4.93-7.96 1.69-3.33 2.4-6.72 2.71-13 0.34-7.07 0.03-9.51-1.85-14.5-1.61-4.28-3.87-7.61-7.85-11.58-3.99-4-7.28-6.22-11.58-7.83-3.3-1.24-8.02-2.71-10.5-3.27-2.47-0.57-22.34-1.25-44.15-1.52l-39.66-0.49z"/>
	</g>
</svg>