<svg style="background:#EAF0FA" version="1.2" xmlns="http://www.w3.org/2000/svg" viewBox="0 0 236 236" width="236" height="236">
	<style>
		.s0 { fill: #fefefe } 
		.s1 { fill: #21204b } 
	</style>
	<g id="Background">
		
		<path id="Path 1" class="s1" d="m78 39.84c-1.92 1.57-4.23 4.61-5.12 6.76-0.89 2.14-2.09 5.47-2.66 7.4-0.57 1.92-1.3 5.64-1.63 8.25-0.43 3.48-0.09 5.89 1.28 9l1.87 4.25c-6.21 5.22-7.54 7.09-7.24 8 0.28 0.82-0.2 2.06-1.06 2.75-0.85 0.69-1.3 1.81-1 2.5 0.31 0.69 0.11 1.47-0.44 1.75-0.55 0.28-0.77 1.17-0.5 2 0.27 0.82-0.01 2.29-0.64 3.25-0.78 1.21-0.83 2.37-0.14 3.75 0.78 1.56 0.04 4.42-3.37 13-2.8 7.05-5.28 11.72-6.91 13l-2.54 2 9.6 4.22c-4.67 3.01-4.77 3.29-3.25 3.75 0.96 0.29 1.52 0.98 1.25 1.53-0.27 0.55 0.51 0.99 1.75 0.99 1.94-0.01 2.35 0.68 3 5 0.41 2.75 1.19 5.8 1.72 6.76 0.82 1.48 0.97 1.32 1-1 0.02-1.51 0.48-2.53 1.03-2.25 0.55 0.28 1 1.18 1 2 0 0.82 0.7 3.19 1.55 5.25 1.22 2.97 1.74 3.44 2.48 2.25 0.8-1.28 0.94-1.24 0.95 0.25 0.01 0.96 0.69 1.75 1.52 1.75 0.83 0 1.53 0.56 1.57 1.25 0.04 0.69 0.38 0.43 0.75-0.57 0.55-1.48 4.22 1.77 19.71 17.5 10.47 10.63 20.6 21.66 22.5 24.53l3.47 5.2c4.13-6.52 10.5-14.04 16.81-20.91 6.31-6.88 15.12-15.76 19.58-19.75 4.46-3.99 8.09-6.69 8.07-6-0.04 1 0.21 1 1.25 0.01 0.71-0.69 1.61-0.91 2.01-0.5 0.39 0.41 1.14-0.83 1.66-2.76 0.8-3 0.96-3.14 1.11-1 0.15 2.24 0.37 2.08 2.06-1.5 1.05-2.2 1.97-4.9 2.06-6 0.08-1.1 0.47-0.43 0.85 1.5l0.69 3.5c1.82-4.26 2.35-7.3 2.35-9.5 0-3.6 0.25-4 2.5-4 1.38 0 2.72-0.45 3-1 0.28-0.55-0.06-1.03-0.75-1.06-0.69-0.04-0.12-0.53 1.25-1.1l2.5-1.04c-3.49-1.39-4.5-2.14-4.5-2.55 0.01-0.41 2.03-1.54 4.5-2.5l4.5-1.75c-4.5-3.82-6.92-8.25-9.42-14.58-2.16-5.46-4.07-10.93-4.25-12.17-0.18-1.24 0.12-2.25 0.67-2.25q1 0 0-2c-0.55-1.1-0.78-2.45-0.5-3 0.28-0.55-0.29-1.91-1.25-3.03-1.45-1.69-1.49-2.02-0.25-1.97 1.28 0.06 1.27-0.19-0.12-1.72-0.89-0.98-1.45-2.34-1.25-3.03 0.2-0.69-1.32-2.89-3.38-4.89l-3.75-3.64c3.24-10.1 3.34-11.35 2.3-11.86-0.71-0.35-0.96-1.14-0.55-1.75 0.41-0.61 0.03-3.92-0.85-7.36-0.88-3.44-2.4-7.6-3.38-9.25-0.99-1.65-3.19-4.24-4.9-5.75l-3.12-2.75c-9.04 9.69-14.66 14.86-18.33 17.75-5.88 4.63-6.97 5.13-9.17 4.25-1.37-0.55-5.09-0.98-8.25-0.96-3.16 0.03-7.78 0.45-10.25 0.93-3.55 0.7-5.03 0.55-7-0.73-1.37-0.88-6.82-6.02-12.1-11.42-5.28-5.4-9.78-9.82-10-9.83-0.22 0-1.98 1.28-3.9 2.85z"/>
		<path id="Path 2" class="s0" d="m96.75 89.62c-1.44 0.31-1.53 0.65-0.5 1.92 1.08 1.33 0.83 1.54-1.75 1.49-1.65-0.04-3.9 0.56-5 1.32-1.91 1.31-1.85 1.4 1.25 2.01 1.79 0.35 3.7 0.42 4.25 0.14 0.55-0.28 0.66-1.04 0.25-1.7-0.56-0.9 0.25-1.03 3.25-0.5 2.2 0.39 5.13 1.81 6.5 3.15 1.91 1.87 2.56 3.62 2.75 7.49 0.14 2.87-0.18 5.06-0.75 5.06-0.55 0-1.22-0.45-1.5-1-0.28-0.55-1.63-1-3-1-1.38 0-3.74-0.62-5.25-1.38-1.51-0.76-3.42-2.13-4.25-3.04-0.83-0.92-2.29-1.65-3.25-1.62-0.96 0.02-1.77 0.6-1.78 1.29-0.02 0.69 0.88 2.49 2 4 1.11 1.51 2.82 2.73 3.78 2.71 1.56-0.04 1.59 0.12 0.25 1.54-1.35 1.43-1.2 1.6 1.5 1.7 1.65 0.06 3.56 0.04 4.25-0.04 0.69-0.09 1.25 0.29 1.25 0.84 0 0.55 1.01 0.8 2.25 0.56 1.82-0.36 2.22-0.02 2.09 1.75-0.08 1.2-1.65 5.34-3.47 9.19l-3.32 7c-0.81-5.54-1.72-7.95-2.55-8.94-0.83-0.99-3.43-2.99-5.78-4.43-2.36-1.45-4.05-2.85-3.76-3.13 0.3-0.28-1.04-1.51-2.96-2.75-2.32-1.49-3.49-3.01-3.48-4.5 0.02-1.24-0.21-4.16-0.5-6.5-0.28-2.34-0.97-4.25-1.52-4.25-0.55 0-0.99 0.79-0.98 1.75 0.01 0.96-0.56 2.33-1.25 3.04-0.82 0.83-0.91 1.55-0.27 2 0.55 0.39 1.11 1.27 1.25 1.96 0.14 0.69-0.65 2.71-1.75 4.5-1.09 1.79-2 4.37-2.01 5.75-0.02 2.28 0.09 2.34 1.24 0.73 1.06-1.47 1.23-0.39 1.03 6.5l-0.24 8.27c2.44-7.75 3.45-10.31 3.81-10.69 0.37-0.38 0.49 2.77 0.26 7q-0.4 7.69 0.75 8.44c0.76 0.49 1.33-0.28 1.66-2.25 0.28-1.65 0.95-3 1.5-3q1 0 0 3.25c-0.55 1.79-1 4.15-0.99 5.25 0 1.1 1.14-0.47 2.51-3.5 1.38-3.03 2.7-5.28 2.95-5 0.24 0.28-0.22 2.75-1.03 5.5-0.81 2.75-1.46 7.03-1.46 9.5 0 2.47 0.76 6.97 1.69 10 0.92 3.03 1.8 4.82 1.94 4 0.15-0.82 0.52-3.64 0.83-6.25 0.31-2.61 1.01-4.75 1.56-4.75 0.55 0 1.02 1.69 1.05 3.75 0.02 2.06 0.66 5.1 1.41 6.75l1.38 3c0.12-4.26 0.5-5.51 0.91-5.52 0.41-0.02 1.14 1.45 1.61 3.25 0.86 3.23 0.88 3.24 1.62 0.77 0.71-2.4 0.83-2.31 2.86 2 1.79 3.8 2.13 4.11 2.22 2 0.08-1.95 0.45-1.51 1.7 2l1.59 4.5 1.95-7c1.89 8.53 4.14 14.6 6.24 19l3.8 8c2.66-6.97 4.38-10.57 5.53-12.5 1.16-1.93 2.45-5.83 2.87-8.67 0.42-2.85 1.1-4.99 1.51-4.75 0.41 0.23 0.76 1.66 0.78 3.17 0.03 2.66 0.08 2.69 1.52 0.75 0.82-1.1 1.51-2.9 1.54-4 0.05-1.83 0.11-1.85 0.73-0.18 0.56 1.51 1 1.17 2.56-2 1.66-3.38 1.96-3.59 2.62-1.82 0.66 1.78 0.92 1.61 2.29-1.5l1.55-3.5 0.32 6c2.94-6.2 3.79-9.35 3.79-11 0-1.65 0.34-2.63 0.77-2.17 0.43 0.46 1.02 3.61 1.32 7l0.53 6.17c2.67-8.53 3.45-13.7 3.46-17 0-3.3-0.45-7.46-1.01-9.25-0.56-1.79-0.8-3.59-0.53-4 0.27-0.41 1.42 1.28 2.56 3.75l2.07 4.5c-0.87-7.36-0.9-9.5-0.62-9.5 0.28 0 1.14 1.46 1.92 3.25 1.39 3.18 1.42 3.08 1.5-4.5 0.05-4.45 0.51-7.75 1.08-7.75 0.55 0 1.28 2.14 1.62 4.75 0.52 4.06 0.76 4.46 1.64 2.75 0.6-1.16 0.78-4.53 0.42-8-0.57-5.56-0.51-5.81 0.81-3.5l1.44 2.5c0.02-3.88-0.86-6.91-1.95-9.25-1.09-2.34-1.64-4.23-1.23-4.21 0.41 0.03 0.19-0.65-0.5-1.5-1-1.23-1-1.61 0-1.88 0.96-0.26 0.98-0.66 0.09-1.75-0.65-0.77-1.21-1.75-1.25-2.16-0.05-0.41-0.09-1.65-0.09-2.75 0-1.1-0.34-1.82-0.75-1.61-0.41 0.21-1.09 2.8-1.51 5.75-0.42 2.95-0.87 6.24-1 7.32-0.13 1.08-1.6 2.88-3.27 4-1.66 1.12-3.03 2.49-3.03 3.04-0.01 0.55-1.99 2.12-4.42 3.5-2.82 1.6-4.87 3.67-5.71 5.75-0.72 1.79-1.34 4.26-1.38 5.5-0.06 1.76-0.35 1.48-1.36-1.25-0.7-1.93-2.25-5.41-3.43-7.75-1.18-2.34-1.92-4.59-1.65-5 0.27-0.41-0.06-1.36-0.75-2.1-1.03-1.12-0.76-1.25 1.51-0.75 1.51 0.33 2.75 0.26 2.76-0.15 0-0.41 0.79-0.78 1.75-0.82 0.96-0.04 3.09-0.15 4.74-0.23 2.89-0.16 2.93-0.22 1-1.65-1.78-1.32-1.81-1.49-0.25-1.52 0.96-0.02 2.65-0.93 3.75-2.03 1.1-1.1 2-2.9 2-4 0-1.11-0.67-2-1.5-2-0.82 0-2.96 1.21-4.75 2.69-1.79 1.48-4.99 2.95-7.11 3.25-2.13 0.31-4.04 0.9-4.25 1.31-0.22 0.41-0.84 0.75-1.39 0.75-0.56 0-0.89-2.11-0.75-4.84 0.14-2.66 0.93-5.64 1.75-6.62 0.82-0.98 2.74-2.4 4.25-3.16 1.51-0.76 3.65-1.38 4.75-1.38 1.1 0 1.78 0.45 1.5 1-0.28 0.55 0.18 1.22 1 1.5 0.82 0.28 2.74 0.21 4.25-0.13 2.67-0.62 2.69-0.68 0.75-2.02-1.1-0.76-3.35-1.39-5-1.4-2.85-0.01-2.9-0.08-1-1.39 1.95-1.35 1.94-1.39-0.5-1.96-1.38-0.31-4.19-0.58-6.25-0.59-2.63-0.01-4.36 0.66-5.78 2.24-1.12 1.24-2.47 3.82-3 5.75-0.53 1.92-0.95 5.3-0.95 7.5 0.01 2.2 0.7 6.03 1.54 8.5 0.84 2.47 1.29 5.06 0.99 5.75-0.3 0.69-0.13 3.39 0.38 6 0.51 2.61 1.19 5.43 1.51 6.25 0.5 1.28-1.11 1.5-10.99 1.5h-11.58c1.03-5.43 1.49-9.47 1.68-12.5 0.2-3.03 1.07-7.53 1.94-10 1.26-3.61 1.37-5.49 0.53-9.5-0.58-2.75-1.94-6.46-3.03-8.25-1.77-2.89-2.46-3.24-6.24-3.13-2.34 0.06-5.04 0.28-6 0.5z"/>
		<path id="Path 3" class="s1" d="m94.75 132.25c-0.41 0.96-0.75 3.78-0.75 6.25 0 4 0.67 5.33 6 12 3.3 4.13 7.35 8.18 9 9 1.94 0.97 5.91 1.5 11.25 1.5l8.25-0.01c9.91-10.45 13.62-15.4 14.64-17.74 1.13-2.58 1.63-5.33 1.28-7-0.32-1.51-0.81-3.43-1.09-4.25-0.29-0.88-1.1 0.35-1.97 3-0.81 2.47-1.71 5.18-2 6-0.36 1.05-0.9 0.6-1.77-1.5l-1.24-3c-1.05 6.2-2.59 9.71-4.1 11.79-1.51 2.08-3.09 3.77-3.5 3.75-0.41-0.02-0.41-2.26 0-4.97 0.64-4.18 0.45-5.24-1.25-7.03-1.59-1.67-3.18-2.1-7.75-2.07-3.16 0.02-6.65 0.48-7.75 1.03-1.67 0.84-2 2.02-2.03 7.25l-0.03 6.25c-4.6-5.04-6.37-8.19-6.89-10.25-0.53-2.06-0.75-4.09-0.5-4.5 0.25-0.41 0-0.75-0.55-0.75-0.55 0-1.28 1.24-1.61 2.75-0.48 2.16-0.8 2.43-1.49 1.25-0.48-0.82-0.88-2.51-0.88-3.75-0.01-1.24-0.47-2.03-1.02-1.75-0.55 0.28-1.11-0.74-1.25-2.25-0.2-2.2-0.4-2.4-1-1z"/>
		<path id="Path 4" class="s0" d="m157.25 48.49c-1.24 0.83-3.66 4.32-5.38 7.76-1.72 3.44-3.97 7.49-5 9-1.03 1.51-1.76 2.86-1.62 3 0.14 0.14 1.26 0.81 2.5 1.5 1.24 0.69 2.93 1.25 3.75 1.25 0.82 0 1.95-0.9 2.5-2 0.55-1.1 1-2.22 1-2.5 0-0.28-0.68-0.5-1.5-0.5-1.33 0-1.33-0.33 0-3 0.82-1.65 1.84-4.77 2.25-6.93 0.41-2.17 1.09-3.74 1.5-3.5 0.41 0.24 0.73 1.44 0.71 2.68-0.04 2.04 0.11 2.11 1.64 0.75 1.57-1.39 1.67-1.09 1.3 4.24-0.22 3.16-0.06 5.75 0.35 5.75 0.41 0.01 1.14 1.25 1.62 2.76 0.86 2.72 0.88 2.71 1.63-1.25 0.42-2.2 0.48-5.91 0.13-8.25-0.35-2.34-1.31-6.05-2.13-8.25-0.82-2.2-1.84-4-2.25-4.01-0.41 0-1.76 0.67-3 1.5zm-81.68 3.26c-0.85 2.61-1.82 6.77-2.14 9.25-0.33 2.47-0.16 5.62 0.38 7l0.97 2.5c0.95-4.26 1.67-5.28 2.22-5 0.65 0.33 0.74-1.43 0.25-5.01-0.56-4.15-0.44-5.51 0.5-5.5 0.69 0 1.27 0.57 1.29 1.26 0.02 0.69 0.77-0.33 1.66-2.25l1.62-3.5c1.07 7.75 1.89 11.01 2.53 12.25 0.63 1.24 1.15 2.47 1.15 2.75 0 0.28-0.67 0.28-1.5 0-0.82-0.28-1.5-0.28-1.5 0 0 0.28 0.68 1.85 1.5 3.5 1.5 3 1.5 3 4.75 1.37 1.79-0.89 3.36-1.79 3.5-2 0.14-0.2-1.02-2.51-2.56-5.12-1.55-2.61-3.77-6.78-4.94-9.25-1.17-2.48-3.28-5.06-4.69-5.75-1.41-0.69-2.76-1.25-3-1.25-0.24 0-1.13 2.14-1.99 4.75z"/>
	</g>
</svg>